# xmcd
# Track frame offsets:
# 150
# 15887
# 34404
# 51858
# 70164
# 90469
# 105877
# 127245
# 144541
# 160292
# 178665
# 196100
# 214430
# 234716
# 250128
# 271492
#
# Disc length: 3850 seconds
# Revision: 0
# Processed by: cddbd v1.5.1PL0 Copyright (c) Steve Scherf et al.
# Submitted via: VisiTrax 2.9.10.228 - For more info visit www.synapsa.com
#
DISCID=e20f0810
DTITLE=Various Artist - Female Country Hits (vol 1)
DYEAR=2004
DGENRE=Country
TTITLE0=Martina McBride - In my Daughters Eyes
TTITLE1=Shania Twain - Shes not just a pretty Face
TTITLE2=Dixie Chicks - Wide Open Spaces
TTITLE3=Jennifer Hanson - Beautiful Goodbye
TTITLE4=Dixie Chicks - Goodbye Earl
TTITLE5=Shania Twain with Alison Krauss and union Station - Coat of many Colors
TTITLE6=Sara Evans - Perfect
TTITLE7=Kelly Coffey - Texas Plates
TTITLE8=Martina McBride - In my Daughters Eyes (vocals)
TTITLE9=Shania Twain - Shes not just a pretty Face (vocals)
TTITLE10=Dixie Chicks - Wide Open Spaces (vocals)
TTITLE11=Jennifer Hanson - Beautiful Goodbye (vocals)
TTITLE12=Dixie Chicks - Goodbye Earl (vocals)
TTITLE13=Shania Twain with Alison Krauss and union Station - Coat of many Color
TTITLE13=s (vocals)
TTITLE14=Sara Evans - Perfect (vocals)
TTITLE15=Kelly Coffey - Texas Plates (vocals)
EXTD=
EXTT0=
EXTT1=
EXTT2=
EXTT3=
EXTT4=
EXTT5=
EXTT6=
EXTT7=
EXTT8=
EXTT9=
EXTT10=
EXTT11=
EXTT12=
EXTT13=
EXTT14=
EXTT15=
PLAYORDER=
